<?xml version="1.0" encoding="UTF-8" standalone="no"?>
<svg
   xmlns:dc="http://purl.org/dc/elements/1.1/"
   xmlns:cc="http://creativecommons.org/ns#"
   xmlns:rdf="http://www.w3.org/1999/02/22-rdf-syntax-ns#"
   xmlns:svg="http://www.w3.org/2000/svg"
   xmlns="http://www.w3.org/2000/svg"
   id="svg16"
   version="1.1"
   viewBox="0 0 126 40"
   height="40px"
   width="126px">
  <metadata
     id="metadata22">
    <rdf:RDF>
      <cc:Work
         rdf:about="">
        <dc:format>image/svg+xml</dc:format>
        <dc:type
           rdf:resource="http://purl.org/dc/dcmitype/StillImage" />
      </cc:Work>
    </rdf:RDF>
  </metadata>
  <defs
     id="defs20" />
  <title
     id="title2">workflow-logo</title>
  <g
     fill-rule="evenodd"
     fill="none"
     stroke-width="1"
     stroke="none"
     id="workflow-logo">
    <path
       fill-rule="nonzero"
       fill="#1D2B36"
       id="Workflow"
       d="M53.474359,26.8205128 L56.0769231,17.4692308 L58.6076923,26.8205128 L60.9948718,26.8205128 L64.2076923,13.9871795 L61.9820513,13.9871795 L59.6846154,23.4641026 L57.1358974,13.9871795 L55.1615385,13.9871795 L52.6666667,23.4102564 L50.4410256,13.9871795 L48,13.9871795 L51.1948718,26.8205128 L53.474359,26.8205128 Z M69.0538462,27 C69.7478633,27 70.3880342,26.8863248 70.974359,26.6589744 C71.5606838,26.4316239 72.0692308,26.1055556 72.5,25.6807692 C72.9307693,25.2559829 73.2688035,24.7474359 73.5141026,24.1551282 C73.7594017,23.5628205 73.8820513,22.9017094 73.8820513,22.1717949 L73.8820513,22.1717949 L73.8820513,22.0282051 C73.8820513,21.3102564 73.7594017,20.6581197 73.5141026,20.0717949 C73.2688035,19.4854701 72.9307693,18.9799145 72.5,18.5551282 C72.0692308,18.1303419 71.5606838,17.8042735 70.974359,17.5769231 C70.3880342,17.3495726 69.7538462,17.2358974 69.0717949,17.2358974 C68.3777778,17.2358974 67.7376069,17.3525641 67.1512821,17.5858974 C66.5649573,17.8192308 66.0564103,18.1482906 65.6256411,18.5730769 C65.1948718,18.9978632 64.8568376,19.5064103 64.6115385,20.0987179 C64.3662394,20.6910256 64.2435898,21.3521368 64.2435898,22.0820513 L64.2435898,22.0820513 L64.2435898,22.225641 C64.2435898,22.9435897 64.3632479,23.5957265 64.6025641,24.1820513 C64.8418804,24.7683761 65.1769231,25.2709402 65.6076923,25.6897436 C66.0384616,26.108547 66.5470086,26.4316239 67.1333334,26.6589744 C67.7196582,26.8863248 68.3598291,27 69.0538462,27 Z M69.0717949,25.3128205 C68.2461539,25.3128205 67.6059829,25.0346154 67.1512821,24.4782051 C66.6965812,23.9217949 66.4692308,23.1589744 66.4692308,22.1897436 L66.4692308,22.1897436 L66.4692308,22.0461538 C66.4692308,21.0769231 66.6995727,20.317094 67.1602565,19.7666667 C67.6209402,19.2162393 68.2581197,18.9410256 69.0717949,18.9410256 C69.8854701,18.9410256 70.5196582,19.2192308 70.974359,19.775641 C71.4290599,20.3320513 71.6564103,21.0948718 71.6564103,22.0641026 L71.6564103,22.0641026 L71.6564103,22.1897436 C71.6564103,23.1589744 71.4290599,23.9217949 70.974359,24.4782051 C70.5196582,25.0346154 69.8854701,25.3128205 69.0717949,25.3128205 Z M77.723077,26.8205128 L77.723077,21.9384615 C77.723077,21.4358974 77.7918804,21.0200855 77.9294873,20.6910256 C78.0670941,20.3619658 78.2675214,20.0957265 78.5307693,19.8923077 C78.7940172,19.6888889 79.1141026,19.5423077 79.4910257,19.4525641 C79.8679488,19.3628205 80.2957266,19.3179487 80.7743591,19.3179487 L80.7743591,19.3179487 L80.7743591,17.2897436 C79.9846155,17.3017094 79.3534189,17.4722222 78.8807693,17.8012821 C78.4081197,18.1303419 78.0222223,18.5940171 77.723077,19.1923077 L77.723077,19.1923077 L77.723077,17.4333333 L75.5512821,17.4333333 L75.5512821,26.8205128 L77.723077,26.8205128 Z M84.5615386,26.8205128 L84.5615386,22.2076923 L88.0794873,26.8205128 L90.5923078,26.8205128 L86.6435899,21.7410256 L90.2871796,17.4333333 L87.9179488,17.4333333 L84.5615386,21.5615385 L84.5615386,13.0897436 L82.3897437,13.0897436 L82.3897437,26.8205128 L84.5615386,26.8205128 Z M94.3435899,26.8205128 L94.3435899,19.0666667 L96.4794873,19.0666667 L96.4794873,17.4333333 L94.3435899,17.4333333 L94.3435899,16.0871795 C94.3435899,15.6803419 94.4393164,15.3482906 94.6307694,15.0910256 C94.8222224,14.8337607 95.1333335,14.7051282 95.5641027,14.7051282 C95.9470087,14.7051282 96.2521369,14.7529915 96.4794873,14.8487179 L96.4794873,14.8487179 L96.4794873,13.1615385 C96.311966,13.1017094 96.1414532,13.0598291 95.9679489,13.0358974 C95.7944446,13.0119658 95.5700856,13 95.294872,13 C94.2897437,13 93.5179489,13.2692308 92.9794873,13.8076923 C92.4410258,14.3461538 92.171795,15.1358974 92.171795,16.1769231 L92.171795,16.1769231 L92.171795,17.4333333 L90.8974361,17.4333333 L90.8974361,19.0666667 L92.171795,19.0666667 L92.171795,26.8205128 L94.3435899,26.8205128 Z M99.9974361,26.8205128 L99.9974361,13.0897436 L97.8256412,13.0897436 L97.8256412,26.8205128 L99.9974361,26.8205128 Z M106.530769,27 C107.224787,27 107.864958,26.8863248 108.451282,26.6589744 C109.037607,26.4316239 109.546154,26.1055556 109.976923,25.6807692 C110.407693,25.2559829 110.745727,24.7474359 110.991026,24.1551282 C111.236325,23.5628205 111.358975,22.9017094 111.358975,22.1717949 L111.358975,22.1717949 L111.358975,22.0282051 C111.358975,21.3102564 111.236325,20.6581197 110.991026,20.0717949 C110.745727,19.4854701 110.407693,18.9799145 109.976923,18.5551282 C109.546154,18.1303419 109.037607,17.8042735 108.451282,17.5769231 C107.864958,17.3495726 107.230769,17.2358974 106.548718,17.2358974 C105.854701,17.2358974 105.21453,17.3525641 104.628205,17.5858974 C104.041881,17.8192308 103.533334,18.1482906 103.102564,18.5730769 C102.671795,18.9978632 102.333761,19.5064103 102.088462,20.0987179 C101.843163,20.6910256 101.720513,21.3521368 101.720513,22.0820513 L101.720513,22.0820513 L101.720513,22.225641 C101.720513,22.9435897 101.840171,23.5957265 102.079487,24.1820513 C102.318804,24.7683761 102.653846,25.2709402 103.084616,25.6897436 C103.515385,26.108547 104.023932,26.4316239 104.610257,26.6589744 C105.196581,26.8863248 105.836752,27 106.530769,27 Z M106.548718,25.3128205 C105.723077,25.3128205 105.082906,25.0346154 104.628205,24.4782051 C104.173505,23.9217949 103.946154,23.1589744 103.946154,22.1897436 L103.946154,22.1897436 L103.946154,22.0461538 C103.946154,21.0769231 104.176496,20.317094 104.63718,19.7666667 C105.097863,19.2162393 105.735043,18.9410256 106.548718,18.9410256 C107.362393,18.9410256 107.996581,19.2192308 108.451282,19.775641 C108.905983,20.3320513 109.133334,21.0948718 109.133334,22.0641026 L109.133334,22.0641026 L109.133334,22.1897436 C109.133334,23.1589744 108.905983,23.9217949 108.451282,24.4782051 C107.996581,25.0346154 107.362393,25.3128205 106.548718,25.3128205 Z M116.923077,26.8205128 L118.825641,20.5025641 L120.566667,26.8205128 L122.774359,26.8205128 L125.717949,17.4333333 L123.6,17.4333333 L121.64359,24.2179487 L119.812821,17.4333333 L118,17.4333333 L116.007693,24.2179487 L114.141026,17.4333333 L111.825641,17.4333333 L114.697436,26.8205128 L116.923077,26.8205128 Z" />
    <g
       id="Group">
      <rect
         height="40"
         width="40"
         y="0"
         x="0"
         id="Rectangle" />
      <g
         fill-rule="nonzero"
         transform="translate(4.000000, 5.000000)"
         id="Group-Copy">
        <g
           fill="#4AA147"
           transform="translate(5.000000, 5.000000)"
           opacity="0.6366"
           id="Group-2">
          <path
             id="Combined-Shape"
             d="M11.8,16 L11.8,19.2 L10.8,19.2 L10.8,16 L2.3,16 C1.5,16 0.8,15.2 0.8,14.2 L0.8,11.7 L0.8,6.3 C0.8,5.3 1.5,4.5 2.3,4.5 L10.4,4.5 L10.4,0.2 L11.4,0.2 L11.4,4.4 L20.3,4.4 C21.1,4.4 21.8,5.2 21.8,6.2 L21.8,11.6 L21.8,14.1 C21.8,15.1 21.1,15.9 20.3,15.9 L11.8,16 C11.8,15.9 11.8,16 11.8,16 Z M1.8,11.8 L1.8,14.3 C1.8,14.6 2,14.9 2.3,14.9 L20.3,14.9 C20.6,14.9 20.8,14.6 20.8,14.3 L20.8,11.8 L20.8,6.3 C20.8,6 20.6,5.7 20.3,5.7 L2.3,5.7 C2,5.8 1.8,6.1 1.8,6.3 C1.8,6.3 1.8,11.8 1.8,11.8 Z" />
        </g>
        <g
           id="Group-4">
          <path
             opacity="0.6"
             fill="#0565FF"
             id="Rectangle-Copy"
             d="M1.4,12.1 L11.1,12.1 C11.7,12.1 12.1,12.5 12.1,13.1 L12.1,16.6 C12.1,17.2 11.7,17.6 11.1,17.6 L1.4,17.6 C0.8,17.6 0.4,17.2 0.4,16.6 L0.4,13.1 C0.4,12.6 0.8,12.1 1.4,12.1 Z" />
          <path
             fill="#D341A5"
             id="Rectangle-Copy-3"
             d="M11.1,0.2 L20.8,0.2 C21.4,0.2 21.8,0.6 21.8,1.2 L21.8,4.7 C21.8,5.3 21.4,5.7 20.8,5.7 L11.1,5.7 C10.5,5.7 10.1,5.3 10.1,4.7 L10.1,1.2 C10.1,0.6 10.6,0.2 11.1,0.2 Z" />
          <path
             opacity="0.3164"
             fill="#D341A5"
             id="Rectangle-Copy-4"
             d="M12.4,24.2 L20.2,24.2 C20.8,24.2 21.2,24.6 21.2,25.2 L21.2,28.7 C21.2,29.3 20.8,29.7 20.2,29.7 L12.4,29.7 C11.8,29.7 11.4,29.3 11.4,28.7 L11.4,25.2 C11.4,24.6 11.8,24.2 12.4,24.2 Z" />
          <path
             opacity="0.6366"
             fill="#FFA530"
             id="Rectangle-Copy-2"
             d="M21,12.1 L30.7,12.1 C31.3,12.1 31.7,12.5 31.7,13.1 L31.7,16.6 C31.7,17.2 31.3,17.6 30.7,17.6 L21,17.6 C20.4,17.6 20,17.2 20,16.6 L20,13.1 C20,12.6 20.4,12.1 21,12.1 Z" />
        </g>
      </g>
    </g>
  </g>
</svg>
